<mxfile host="app.diagrams.net" modified="2023-05-16T13:54:04.662Z" agent="Mozilla/5.0 (Windows NT 10.0; Win64; x64) AppleWebKit/537.36 (KHTML, like Gecko) Chrome/113.0.0.0 Safari/537.36" etag="xLtOa2Cxw2s3eNuebg1O" version="21.2.9" type="device">
  <diagram name="Pagina-1" id="90NE69MLTFmaHl6MFu-S">
    <mxGraphModel dx="2048" dy="1832" grid="1" gridSize="10" guides="1" tooltips="1" connect="1" arrows="1" fold="1" page="1" pageScale="1" pageWidth="827" pageHeight="1169" math="0" shadow="0">
      <root>
        <mxCell id="0" />
        <mxCell id="1" parent="0" />
        <mxCell id="Ybae3c815JKuD6VL8blU-2" value="Dipendenti" style="shape=umlActor;verticalLabelPosition=bottom;verticalAlign=top;html=1;outlineConnect=0;" parent="1" vertex="1">
          <mxGeometry x="370" y="-380" width="30" height="60" as="geometry" />
        </mxCell>
        <mxCell id="Ybae3c815JKuD6VL8blU-3" value="Titlare/Socio" style="shape=umlActor;verticalLabelPosition=bottom;verticalAlign=top;html=1;outlineConnect=0;" parent="1" vertex="1">
          <mxGeometry x="18" y="-945" width="30" height="60" as="geometry" />
        </mxCell>
        <mxCell id="Ybae3c815JKuD6VL8blU-4" value="Visualizzazione&lt;br&gt;&amp;nbsp;lista dipendenti" style="ellipse;whiteSpace=wrap;html=1;" parent="1" vertex="1">
          <mxGeometry x="228" y="-980" width="110" height="70" as="geometry" />
        </mxCell>
        <mxCell id="Ybae3c815JKuD6VL8blU-5" value="In ordine &lt;br&gt;alfabetico" style="ellipse;whiteSpace=wrap;html=1;" parent="1" vertex="1">
          <mxGeometry x="508" y="-950" width="100" height="60" as="geometry" />
        </mxCell>
        <mxCell id="Ybae3c815JKuD6VL8blU-6" value="Per mansione" style="ellipse;whiteSpace=wrap;html=1;" parent="1" vertex="1">
          <mxGeometry x="508" y="-1030" width="106" height="60" as="geometry" />
        </mxCell>
        <mxCell id="Ybae3c815JKuD6VL8blU-9" value="" style="endArrow=none;html=1;rounded=0;entryX=0;entryY=0.5;entryDx=0;entryDy=0;" parent="1" target="Ybae3c815JKuD6VL8blU-4" edge="1">
          <mxGeometry width="50" height="50" relative="1" as="geometry">
            <mxPoint x="68" y="-940" as="sourcePoint" />
            <mxPoint x="428" y="-860" as="targetPoint" />
          </mxGeometry>
        </mxCell>
        <mxCell id="Ybae3c815JKuD6VL8blU-13" value="Compilazione&amp;nbsp;&lt;br&gt;calendario" style="ellipse;whiteSpace=wrap;html=1;" parent="1" vertex="1">
          <mxGeometry x="378" y="-780" width="120" height="70" as="geometry" />
        </mxCell>
        <mxCell id="Ybae3c815JKuD6VL8blU-14" value="Registrazione&lt;br&gt;ritardi/assenze e permessi" style="ellipse;whiteSpace=wrap;html=1;" parent="1" vertex="1">
          <mxGeometry x="628" y="-725" width="100" height="60" as="geometry" />
        </mxCell>
        <mxCell id="Ybae3c815JKuD6VL8blU-15" value="Cambio&lt;br&gt;turno" style="ellipse;whiteSpace=wrap;html=1;" parent="1" vertex="1">
          <mxGeometry x="522" y="-665" width="96" height="55" as="geometry" />
        </mxCell>
        <mxCell id="Ybae3c815JKuD6VL8blU-17" value="Registrazione turni straordinari" style="ellipse;whiteSpace=wrap;html=1;" parent="1" vertex="1">
          <mxGeometry x="298" y="-885" width="110" height="60" as="geometry" />
        </mxCell>
        <mxCell id="Ybae3c815JKuD6VL8blU-18" value="Registrazione&lt;br&gt;ferie" style="ellipse;whiteSpace=wrap;html=1;" parent="1" vertex="1">
          <mxGeometry x="668" y="-810" width="100" height="60" as="geometry" />
        </mxCell>
        <mxCell id="Ybae3c815JKuD6VL8blU-19" value="Registrazione giorni di riposo" style="ellipse;whiteSpace=wrap;html=1;" parent="1" vertex="1">
          <mxGeometry x="578" y="-870" width="100" height="60" as="geometry" />
        </mxCell>
        <mxCell id="Ybae3c815JKuD6VL8blU-20" value="Registrazione &lt;br&gt;turni mensili" style="ellipse;whiteSpace=wrap;html=1;" parent="1" vertex="1">
          <mxGeometry x="444" y="-890" width="106" height="60" as="geometry" />
        </mxCell>
        <mxCell id="Ybae3c815JKuD6VL8blU-25" value="&amp;lt;&amp;lt;extends&amp;gt;&amp;gt;" style="endArrow=open;endSize=12;dashed=1;html=1;rounded=0;entryX=0.749;entryY=0.956;entryDx=0;entryDy=0;exitX=0;exitY=0;exitDx=0;exitDy=0;entryPerimeter=0;" parent="1" source="Ybae3c815JKuD6VL8blU-15" target="Ybae3c815JKuD6VL8blU-13" edge="1">
          <mxGeometry width="160" relative="1" as="geometry">
            <mxPoint x="506" y="-665" as="sourcePoint" />
            <mxPoint x="522" y="-726" as="targetPoint" />
            <Array as="points" />
          </mxGeometry>
        </mxCell>
        <mxCell id="Ybae3c815JKuD6VL8blU-26" value="&amp;lt;&amp;lt;extends&amp;gt;&amp;gt;" style="endArrow=open;endSize=12;dashed=1;html=1;rounded=0;exitX=0.017;exitY=0.331;exitDx=0;exitDy=0;exitPerimeter=0;entryX=0.964;entryY=0.689;entryDx=0;entryDy=0;entryPerimeter=0;" parent="1" source="Ybae3c815JKuD6VL8blU-14" target="Ybae3c815JKuD6VL8blU-13" edge="1">
          <mxGeometry width="160" relative="1" as="geometry">
            <mxPoint x="544" y="-648" as="sourcePoint" />
            <mxPoint x="498" y="-730" as="targetPoint" />
            <Array as="points" />
          </mxGeometry>
        </mxCell>
        <mxCell id="Ybae3c815JKuD6VL8blU-27" value="" style="endArrow=none;html=1;rounded=0;entryX=0;entryY=0.5;entryDx=0;entryDy=0;" parent="1" target="Ybae3c815JKuD6VL8blU-13" edge="1">
          <mxGeometry width="50" height="50" relative="1" as="geometry">
            <mxPoint x="68" y="-920" as="sourcePoint" />
            <mxPoint x="328" y="-785" as="targetPoint" />
          </mxGeometry>
        </mxCell>
        <mxCell id="Ybae3c815JKuD6VL8blU-28" value="Lettura &lt;br&gt;badge" style="ellipse;whiteSpace=wrap;html=1;" parent="1" vertex="1">
          <mxGeometry x="100" y="-610" width="100" height="60" as="geometry" />
        </mxCell>
        <mxCell id="Ybae3c815JKuD6VL8blU-29" value="Registrazione orari di arrivo e uscita" style="ellipse;whiteSpace=wrap;html=1;" parent="1" vertex="1">
          <mxGeometry x="150" y="-760" width="110" height="70" as="geometry" />
        </mxCell>
        <mxCell id="Ybae3c815JKuD6VL8blU-31" value="" style="endArrow=none;html=1;rounded=0;" parent="1" target="Ybae3c815JKuD6VL8blU-28" edge="1">
          <mxGeometry width="50" height="50" relative="1" as="geometry">
            <mxPoint x="60" y="-860" as="sourcePoint" />
            <mxPoint x="128" y="-1040" as="targetPoint" />
          </mxGeometry>
        </mxCell>
        <mxCell id="Ybae3c815JKuD6VL8blU-34" value="Calcolo ore lavorative" style="ellipse;whiteSpace=wrap;html=1;" parent="1" vertex="1">
          <mxGeometry x="250" y="-660" width="100" height="60" as="geometry" />
        </mxCell>
        <mxCell id="Ybae3c815JKuD6VL8blU-35" value="Calcolo&lt;br&gt;stipendio" style="ellipse;whiteSpace=wrap;html=1;" parent="1" vertex="1">
          <mxGeometry x="250" y="-540" width="100" height="60" as="geometry" />
        </mxCell>
        <mxCell id="Ybae3c815JKuD6VL8blU-39" value="Compilazione richiesta" style="ellipse;whiteSpace=wrap;html=1;" parent="1" vertex="1">
          <mxGeometry x="678" y="-600" width="100" height="60" as="geometry" />
        </mxCell>
        <mxCell id="Ybae3c815JKuD6VL8blU-40" value="Aggiornamento calendario" style="ellipse;whiteSpace=wrap;html=1;" parent="1" vertex="1">
          <mxGeometry x="688" y="-480" width="100" height="60" as="geometry" />
        </mxCell>
        <mxCell id="Ybae3c815JKuD6VL8blU-42" value="&amp;lt;&amp;lt;extends&amp;gt;&amp;gt;" style="endArrow=open;endSize=12;dashed=1;html=1;rounded=0;exitX=0.412;exitY=0.043;exitDx=0;exitDy=0;exitPerimeter=0;" parent="1" source="Ybae3c815JKuD6VL8blU-40" edge="1">
          <mxGeometry x="0.0028" width="160" relative="1" as="geometry">
            <mxPoint x="614" y="-500" as="sourcePoint" />
            <mxPoint x="729" y="-540" as="targetPoint" />
            <Array as="points" />
            <mxPoint as="offset" />
          </mxGeometry>
        </mxCell>
        <mxCell id="Ybae3c815JKuD6VL8blU-44" value="Il Titolare accetta &lt;br&gt;la richiesta" style="shape=note;whiteSpace=wrap;html=1;backgroundOutline=1;darkOpacity=0.05;size=18;" parent="1" vertex="1">
          <mxGeometry x="678" y="-380" width="122" height="60" as="geometry" />
        </mxCell>
        <mxCell id="Ybae3c815JKuD6VL8blU-46" value="" style="endArrow=none;dashed=1;html=1;rounded=0;entryX=0.5;entryY=1;entryDx=0;entryDy=0;exitX=0.5;exitY=0;exitDx=0;exitDy=0;exitPerimeter=0;" parent="1" source="Ybae3c815JKuD6VL8blU-44" target="Ybae3c815JKuD6VL8blU-40" edge="1">
          <mxGeometry width="50" height="50" relative="1" as="geometry">
            <mxPoint x="738" y="-370" as="sourcePoint" />
            <mxPoint x="438" y="-540" as="targetPoint" />
          </mxGeometry>
        </mxCell>
        <mxCell id="Ybae3c815JKuD6VL8blU-47" value="Aggiornamento&lt;br&gt;lista" style="ellipse;whiteSpace=wrap;html=1;" parent="1" vertex="1">
          <mxGeometry x="360" y="-1090" width="100" height="70" as="geometry" />
        </mxCell>
        <mxCell id="Ybae3c815JKuD6VL8blU-48" value="Assunzione o licenziamento" style="ellipse;whiteSpace=wrap;html=1;" parent="1" vertex="1">
          <mxGeometry x="540" y="-1120" width="110" height="70" as="geometry" />
        </mxCell>
        <mxCell id="Ybae3c815JKuD6VL8blU-50" value="&amp;lt;&amp;lt;extends&amp;gt;&amp;gt;" style="endArrow=open;endSize=12;dashed=1;html=1;rounded=0;exitX=0;exitY=1;exitDx=0;exitDy=0;entryX=0.694;entryY=-0.014;entryDx=0;entryDy=0;entryPerimeter=0;" parent="1" source="Ybae3c815JKuD6VL8blU-47" target="Ybae3c815JKuD6VL8blU-4" edge="1">
          <mxGeometry width="160" relative="1" as="geometry">
            <mxPoint x="344" y="-1030" as="sourcePoint" />
            <mxPoint x="208" y="-1057" as="targetPoint" />
            <Array as="points" />
          </mxGeometry>
        </mxCell>
        <mxCell id="Ybae3c815JKuD6VL8blU-52" value="Inoltro richiesta&lt;br&gt;&amp;nbsp;ai colleghi" style="ellipse;whiteSpace=wrap;html=1;" parent="1" vertex="1">
          <mxGeometry x="513" y="-550" width="96" height="55" as="geometry" />
        </mxCell>
        <mxCell id="Ybae3c815JKuD6VL8blU-59" value="Gestione area personale" style="ellipse;whiteSpace=wrap;html=1;" parent="1" vertex="1">
          <mxGeometry x="90" y="-320" width="120" height="80" as="geometry" />
        </mxCell>
        <mxCell id="Ybae3c815JKuD6VL8blU-60" value="Visualizzazione &lt;br&gt;turni" style="ellipse;whiteSpace=wrap;html=1;" parent="1" vertex="1">
          <mxGeometry x="-106" y="-250" width="106" height="60" as="geometry" />
        </mxCell>
        <mxCell id="Ybae3c815JKuD6VL8blU-61" value="Visualizzazione &lt;br&gt;ferie disponibili" style="ellipse;whiteSpace=wrap;html=1;" parent="1" vertex="1">
          <mxGeometry x="290" y="-240" width="104" height="65" as="geometry" />
        </mxCell>
        <mxCell id="Ybae3c815JKuD6VL8blU-64" value="Visualizzazione &lt;br&gt;emissione stipendio" style="ellipse;whiteSpace=wrap;html=1;" parent="1" vertex="1">
          <mxGeometry x="190" y="-160" width="108" height="65" as="geometry" />
        </mxCell>
        <mxCell id="Ybae3c815JKuD6VL8blU-67" value="Compilazione moduli" style="ellipse;whiteSpace=wrap;html=1;" parent="1" vertex="1">
          <mxGeometry x="30" y="-170" width="106" height="65" as="geometry" />
        </mxCell>
        <mxCell id="Ybae3c815JKuD6VL8blU-70" value="" style="endArrow=none;html=1;rounded=0;entryX=0.218;entryY=0.083;entryDx=0;entryDy=0;entryPerimeter=0;" parent="1" target="Ybae3c815JKuD6VL8blU-59" edge="1">
          <mxGeometry width="50" height="50" relative="1" as="geometry">
            <mxPoint x="30" y="-860" as="sourcePoint" />
            <mxPoint x="250" y="-360" as="targetPoint" />
          </mxGeometry>
        </mxCell>
        <mxCell id="Ybae3c815JKuD6VL8blU-71" value="Registrazione&lt;br&gt;ritardi/assenze non previsti" style="ellipse;whiteSpace=wrap;html=1;" parent="1" vertex="1">
          <mxGeometry x="378" y="-644" width="98" height="60" as="geometry" />
        </mxCell>
        <mxCell id="Ybae3c815JKuD6VL8blU-72" value="&amp;lt;&amp;lt;extends&amp;gt;&amp;gt;" style="endArrow=open;endSize=12;dashed=1;html=1;rounded=0;exitX=0.5;exitY=0;exitDx=0;exitDy=0;entryX=0.442;entryY=0.981;entryDx=0;entryDy=0;entryPerimeter=0;" parent="1" source="Ybae3c815JKuD6VL8blU-71" target="Ybae3c815JKuD6VL8blU-13" edge="1">
          <mxGeometry width="160" relative="1" as="geometry">
            <mxPoint x="444" y="-673" as="sourcePoint" />
            <mxPoint x="438" y="-710" as="targetPoint" />
            <Array as="points" />
          </mxGeometry>
        </mxCell>
        <mxCell id="Ybae3c815JKuD6VL8blU-74" value="Il collega accetta &lt;br&gt;la richiesta" style="shape=note;whiteSpace=wrap;html=1;backgroundOutline=1;darkOpacity=0.05;size=9;" parent="1" vertex="1">
          <mxGeometry x="388" y="-520" width="100" height="55" as="geometry" />
        </mxCell>
        <mxCell id="Ybae3c815JKuD6VL8blU-75" value="" style="endArrow=none;dashed=1;html=1;rounded=0;exitX=0.5;exitY=0;exitDx=0;exitDy=0;exitPerimeter=0;entryX=0.03;entryY=0.335;entryDx=0;entryDy=0;entryPerimeter=0;" parent="1" source="Ybae3c815JKuD6VL8blU-74" target="Ybae3c815JKuD6VL8blU-52" edge="1">
          <mxGeometry width="50" height="50" relative="1" as="geometry">
            <mxPoint x="610" y="-405" as="sourcePoint" />
            <mxPoint x="510" y="-530" as="targetPoint" />
          </mxGeometry>
        </mxCell>
        <mxCell id="Ybae3c815JKuD6VL8blU-76" value="" style="endArrow=none;html=1;rounded=0;" parent="1" target="Ybae3c815JKuD6VL8blU-39" edge="1">
          <mxGeometry width="50" height="50" relative="1" as="geometry">
            <mxPoint x="410" y="-350" as="sourcePoint" />
            <mxPoint x="526" y="-430" as="targetPoint" />
          </mxGeometry>
        </mxCell>
        <mxCell id="Ybae3c815JKuD6VL8blU-77" value="" style="endArrow=none;html=1;rounded=0;exitX=0.982;exitY=0.285;exitDx=0;exitDy=0;exitPerimeter=0;" parent="1" source="Ybae3c815JKuD6VL8blU-59" edge="1">
          <mxGeometry width="50" height="50" relative="1" as="geometry">
            <mxPoint x="248" y="-310" as="sourcePoint" />
            <mxPoint x="360" y="-350" as="targetPoint" />
          </mxGeometry>
        </mxCell>
        <mxCell id="Ybae3c815JKuD6VL8blU-78" value="" style="endArrow=none;html=1;rounded=0;entryX=0.677;entryY=1.004;entryDx=0;entryDy=0;entryPerimeter=0;" parent="1" target="Ybae3c815JKuD6VL8blU-28" edge="1">
          <mxGeometry width="50" height="50" relative="1" as="geometry">
            <mxPoint x="360" y="-380" as="sourcePoint" />
            <mxPoint x="330" y="-440" as="targetPoint" />
          </mxGeometry>
        </mxCell>
        <mxCell id="QBhwffoXIsHrDTXwzddg-1" value="&amp;lt;&amp;lt;include&amp;gt;&amp;gt;" style="html=1;verticalAlign=bottom;labelBackgroundColor=none;endArrow=classic;endFill=1;dashed=1;rounded=0;entryX=0;entryY=0.5;entryDx=0;entryDy=0;exitX=0.954;exitY=0.233;exitDx=0;exitDy=0;exitPerimeter=0;" edge="1" parent="1" source="Ybae3c815JKuD6VL8blU-4" target="Ybae3c815JKuD6VL8blU-6">
          <mxGeometry width="160" relative="1" as="geometry">
            <mxPoint x="345" y="-1010" as="sourcePoint" />
            <mxPoint x="420" y="-1010" as="targetPoint" />
            <Array as="points" />
          </mxGeometry>
        </mxCell>
        <mxCell id="QBhwffoXIsHrDTXwzddg-2" value="&amp;lt;&amp;lt;include&amp;gt;&amp;gt;" style="html=1;verticalAlign=bottom;labelBackgroundColor=none;endArrow=classic;endFill=1;dashed=1;rounded=0;entryX=0;entryY=0.5;entryDx=0;entryDy=0;exitX=0.97;exitY=0.665;exitDx=0;exitDy=0;exitPerimeter=0;" edge="1" parent="1" source="Ybae3c815JKuD6VL8blU-4" target="Ybae3c815JKuD6VL8blU-5">
          <mxGeometry width="160" relative="1" as="geometry">
            <mxPoint x="343" y="-954" as="sourcePoint" />
            <mxPoint x="518" y="-990" as="targetPoint" />
            <Array as="points" />
          </mxGeometry>
        </mxCell>
        <mxCell id="QBhwffoXIsHrDTXwzddg-3" value="&amp;lt;&amp;lt;include&amp;gt;&amp;gt;" style="html=1;verticalAlign=bottom;labelBackgroundColor=none;endArrow=classic;endFill=1;dashed=1;rounded=0;entryX=0;entryY=0.5;entryDx=0;entryDy=0;exitX=1.036;exitY=0.395;exitDx=0;exitDy=0;exitPerimeter=0;" edge="1" parent="1" source="Ybae3c815JKuD6VL8blU-47" target="Ybae3c815JKuD6VL8blU-48">
          <mxGeometry width="160" relative="1" as="geometry">
            <mxPoint x="353" y="-944" as="sourcePoint" />
            <mxPoint x="528" y="-980" as="targetPoint" />
            <Array as="points" />
          </mxGeometry>
        </mxCell>
        <mxCell id="QBhwffoXIsHrDTXwzddg-4" value="&amp;lt;&amp;lt;include&amp;gt;&amp;gt;" style="html=1;verticalAlign=bottom;labelBackgroundColor=none;endArrow=classic;endFill=1;dashed=1;rounded=0;entryX=0.5;entryY=1;entryDx=0;entryDy=0;exitX=0;exitY=0;exitDx=0;exitDy=0;" edge="1" parent="1" source="Ybae3c815JKuD6VL8blU-13" target="Ybae3c815JKuD6VL8blU-17">
          <mxGeometry width="160" relative="1" as="geometry">
            <mxPoint x="363" y="-934" as="sourcePoint" />
            <mxPoint x="538" y="-970" as="targetPoint" />
            <Array as="points" />
          </mxGeometry>
        </mxCell>
        <mxCell id="QBhwffoXIsHrDTXwzddg-5" value="&amp;lt;&amp;lt;include&amp;gt;&amp;gt;" style="html=1;verticalAlign=bottom;labelBackgroundColor=none;endArrow=classic;endFill=1;dashed=1;rounded=0;entryX=0;entryY=1;entryDx=0;entryDy=0;exitX=0.5;exitY=0;exitDx=0;exitDy=0;" edge="1" parent="1" source="Ybae3c815JKuD6VL8blU-13" target="Ybae3c815JKuD6VL8blU-20">
          <mxGeometry width="160" relative="1" as="geometry">
            <mxPoint x="406" y="-760" as="sourcePoint" />
            <mxPoint x="363" y="-815" as="targetPoint" />
            <Array as="points" />
          </mxGeometry>
        </mxCell>
        <mxCell id="QBhwffoXIsHrDTXwzddg-6" value="&amp;lt;&amp;lt;include&amp;gt;&amp;gt;" style="html=1;verticalAlign=bottom;labelBackgroundColor=none;endArrow=classic;endFill=1;dashed=1;rounded=0;entryX=0.064;entryY=0.765;entryDx=0;entryDy=0;exitX=1;exitY=0;exitDx=0;exitDy=0;entryPerimeter=0;" edge="1" parent="1" source="Ybae3c815JKuD6VL8blU-13" target="Ybae3c815JKuD6VL8blU-19">
          <mxGeometry width="160" relative="1" as="geometry">
            <mxPoint x="448" y="-770" as="sourcePoint" />
            <mxPoint x="470" y="-829" as="targetPoint" />
            <Array as="points" />
          </mxGeometry>
        </mxCell>
        <mxCell id="QBhwffoXIsHrDTXwzddg-7" value="&amp;lt;&amp;lt;include&amp;gt;&amp;gt;" style="html=1;verticalAlign=bottom;labelBackgroundColor=none;endArrow=classic;endFill=1;dashed=1;rounded=0;entryX=0;entryY=0.5;entryDx=0;entryDy=0;" edge="1" parent="1" target="Ybae3c815JKuD6VL8blU-18">
          <mxGeometry width="160" relative="1" as="geometry">
            <mxPoint x="500" y="-750" as="sourcePoint" />
            <mxPoint x="594" y="-811" as="targetPoint" />
            <Array as="points" />
          </mxGeometry>
        </mxCell>
        <mxCell id="QBhwffoXIsHrDTXwzddg-8" value="&amp;lt;&amp;lt;include&amp;gt;&amp;gt;" style="html=1;verticalAlign=bottom;labelBackgroundColor=none;endArrow=classic;endFill=1;dashed=1;rounded=0;entryX=0.767;entryY=0.08;entryDx=0;entryDy=0;exitX=0;exitY=1;exitDx=0;exitDy=0;entryPerimeter=0;" edge="1" parent="1" source="Ybae3c815JKuD6VL8blU-13" target="Ybae3c815JKuD6VL8blU-34">
          <mxGeometry width="160" relative="1" as="geometry">
            <mxPoint x="406" y="-760" as="sourcePoint" />
            <mxPoint x="363" y="-815" as="targetPoint" />
            <Array as="points" />
          </mxGeometry>
        </mxCell>
        <mxCell id="QBhwffoXIsHrDTXwzddg-9" value="&amp;lt;&amp;lt;include&amp;gt;&amp;gt;" style="html=1;verticalAlign=bottom;labelBackgroundColor=none;endArrow=classic;endFill=1;dashed=1;rounded=0;exitX=0.667;exitY=-0.043;exitDx=0;exitDy=0;exitPerimeter=0;" edge="1" parent="1" source="Ybae3c815JKuD6VL8blU-28" target="Ybae3c815JKuD6VL8blU-29">
          <mxGeometry width="160" relative="1" as="geometry">
            <mxPoint x="416" y="-750" as="sourcePoint" />
            <mxPoint x="373" y="-805" as="targetPoint" />
            <Array as="points" />
          </mxGeometry>
        </mxCell>
        <mxCell id="QBhwffoXIsHrDTXwzddg-10" value="&amp;lt;&amp;lt;include&amp;gt;&amp;gt;" style="html=1;verticalAlign=bottom;labelBackgroundColor=none;endArrow=classic;endFill=1;dashed=1;rounded=0;entryX=0.5;entryY=0;entryDx=0;entryDy=0;exitX=0.5;exitY=1;exitDx=0;exitDy=0;" edge="1" parent="1" source="Ybae3c815JKuD6VL8blU-34" target="Ybae3c815JKuD6VL8blU-35">
          <mxGeometry width="160" relative="1" as="geometry">
            <mxPoint x="426" y="-740" as="sourcePoint" />
            <mxPoint x="383" y="-795" as="targetPoint" />
            <Array as="points" />
          </mxGeometry>
        </mxCell>
        <mxCell id="QBhwffoXIsHrDTXwzddg-12" value="&amp;lt;&amp;lt;include&amp;gt;&amp;gt;" style="html=1;verticalAlign=bottom;labelBackgroundColor=none;endArrow=classic;endFill=1;dashed=1;rounded=0;" edge="1" parent="1">
          <mxGeometry width="160" relative="1" as="geometry">
            <mxPoint x="610" y="-530" as="sourcePoint" />
            <mxPoint x="680" y="-560" as="targetPoint" />
            <Array as="points" />
          </mxGeometry>
        </mxCell>
        <mxCell id="QBhwffoXIsHrDTXwzddg-13" value="&amp;lt;&amp;lt;include&amp;gt;&amp;gt;" style="html=1;verticalAlign=bottom;labelBackgroundColor=none;endArrow=classic;endFill=1;dashed=1;rounded=0;entryX=0.917;entryY=0.818;entryDx=0;entryDy=0;exitX=0.024;exitY=0.28;exitDx=0;exitDy=0;exitPerimeter=0;entryPerimeter=0;" edge="1" parent="1" source="Ybae3c815JKuD6VL8blU-39" target="Ybae3c815JKuD6VL8blU-15">
          <mxGeometry width="160" relative="1" as="geometry">
            <mxPoint x="456" y="-710" as="sourcePoint" />
            <mxPoint x="413" y="-765" as="targetPoint" />
            <Array as="points" />
          </mxGeometry>
        </mxCell>
        <mxCell id="QBhwffoXIsHrDTXwzddg-14" value="&amp;lt;&amp;lt;include&amp;gt;&amp;gt;" style="html=1;verticalAlign=bottom;labelBackgroundColor=none;endArrow=classic;endFill=1;dashed=1;rounded=0;entryX=1;entryY=1;entryDx=0;entryDy=0;exitX=0.5;exitY=0;exitDx=0;exitDy=0;" edge="1" parent="1" source="Ybae3c815JKuD6VL8blU-39" target="Ybae3c815JKuD6VL8blU-14">
          <mxGeometry width="160" relative="1" as="geometry">
            <mxPoint x="466" y="-700" as="sourcePoint" />
            <mxPoint x="423" y="-755" as="targetPoint" />
            <Array as="points" />
          </mxGeometry>
        </mxCell>
        <mxCell id="QBhwffoXIsHrDTXwzddg-15" value="&amp;lt;&amp;lt;include&amp;gt;&amp;gt;" style="html=1;verticalAlign=bottom;labelBackgroundColor=none;endArrow=classic;endFill=1;dashed=1;rounded=0;exitX=0.031;exitY=0.721;exitDx=0;exitDy=0;exitPerimeter=0;entryX=1.004;entryY=0.328;entryDx=0;entryDy=0;entryPerimeter=0;" edge="1" parent="1" source="Ybae3c815JKuD6VL8blU-59" target="Ybae3c815JKuD6VL8blU-60">
          <mxGeometry width="160" relative="1" as="geometry">
            <mxPoint x="190" y="-360" as="sourcePoint" />
            <mxPoint x="260" y="-390" as="targetPoint" />
            <Array as="points" />
          </mxGeometry>
        </mxCell>
        <mxCell id="QBhwffoXIsHrDTXwzddg-16" value="&amp;lt;&amp;lt;include&amp;gt;&amp;gt;" style="html=1;verticalAlign=bottom;labelBackgroundColor=none;endArrow=classic;endFill=1;dashed=1;rounded=0;exitX=0.231;exitY=0.954;exitDx=0;exitDy=0;exitPerimeter=0;entryX=0.566;entryY=0;entryDx=0;entryDy=0;entryPerimeter=0;" edge="1" parent="1" source="Ybae3c815JKuD6VL8blU-59" target="Ybae3c815JKuD6VL8blU-67">
          <mxGeometry width="160" relative="1" as="geometry">
            <mxPoint x="104" y="-252" as="sourcePoint" />
            <mxPoint x="10" y="-220" as="targetPoint" />
            <Array as="points" />
          </mxGeometry>
        </mxCell>
        <mxCell id="QBhwffoXIsHrDTXwzddg-17" value="&amp;lt;&amp;lt;include&amp;gt;&amp;gt;" style="html=1;verticalAlign=bottom;labelBackgroundColor=none;endArrow=classic;endFill=1;dashed=1;rounded=0;exitX=0.772;exitY=0.943;exitDx=0;exitDy=0;exitPerimeter=0;entryX=0.228;entryY=-0.002;entryDx=0;entryDy=0;entryPerimeter=0;" edge="1" parent="1" source="Ybae3c815JKuD6VL8blU-59" target="Ybae3c815JKuD6VL8blU-64">
          <mxGeometry width="160" relative="1" as="geometry">
            <mxPoint x="210" y="-244" as="sourcePoint" />
            <mxPoint x="182" y="-170" as="targetPoint" />
            <Array as="points" />
          </mxGeometry>
        </mxCell>
        <mxCell id="QBhwffoXIsHrDTXwzddg-18" value="&amp;lt;&amp;lt;include&amp;gt;&amp;gt;" style="html=1;verticalAlign=bottom;labelBackgroundColor=none;endArrow=classic;endFill=1;dashed=1;rounded=0;exitX=1.002;exitY=0.676;exitDx=0;exitDy=0;exitPerimeter=0;entryX=0;entryY=0;entryDx=0;entryDy=0;" edge="1" parent="1" source="Ybae3c815JKuD6VL8blU-59" target="Ybae3c815JKuD6VL8blU-61">
          <mxGeometry width="160" relative="1" as="geometry">
            <mxPoint x="193" y="-235" as="sourcePoint" />
            <mxPoint x="225" y="-150" as="targetPoint" />
            <Array as="points" />
          </mxGeometry>
        </mxCell>
      </root>
    </mxGraphModel>
  </diagram>
</mxfile>
